<?xml version="1.0" encoding="UTF-8"?>
<svg width="20px" height="20px" viewBox="0 0 20 20" version="1.1" xmlns="http://www.w3.org/2000/svg" xmlns:xlink="http://www.w3.org/1999/xlink">
    <!-- Generator: Sketch 64 (93537) - https://sketch.com -->
    <title>icon/done</title>
    <desc>Created with Sketch.</desc>
    <g id="Page-1" stroke="none" stroke-width="1" fill="none" fill-rule="evenodd">
        <g id="day-in-progress" transform="translate(-551.000000, -584.000000)" fill-rule="nonzero">
            <g id="Group-24" transform="translate(535.000000, 164.000000)">
                <g id="Group-23" transform="translate(0.000000, 153.000000)">
                    <g id="Group-21" transform="translate(0.000000, 244.000000)">
                        <g id="icon/completed" transform="translate(16.000000, 23.000000)">
                            <g id="verified-copy">
                                <g id="icon/done">
                                    <path d="M17.0710547,2.92890625 C15.1823047,1.04019531 12.6710938,0 10,0 C7.32886719,0 4.81761719,1.04019531 2.92890625,2.92890625 C1.04015625,4.81765625 0,7.32890625 0,10 C0,12.6710938 1.04015625,15.1823047 2.92890625,17.0710547 C4.81765625,18.9598047 7.32886719,20 10,20 C12.6710938,20 15.1823047,18.9598047 17.0710547,17.0710547 C18.9598047,15.1823047 20,12.6710938 20,10 C20,7.32890625 18.9598047,4.81769531 17.0710547,2.92890625 Z" id="Shape" fill="#6E66C4"></path>
                                    <path d="M14.7775391,6.79136719 C14.54875,6.56261719 14.1777344,6.56261719 13.9489453,6.79140625 L8.77476563,11.9655859 L6.05105469,9.241875 C5.82226563,9.01308594 5.45125,9.01308594 5.22242188,9.241875 C4.99359375,9.47066406 4.99359375,9.84167969 5.22242188,10.0705078 L8.36042969,13.2085156 C8.47484375,13.3229297 8.62480469,13.3801172 8.77472656,13.3801172 C8.92464844,13.3801172 9.07464844,13.3228906 9.18902344,13.2085156 L14.7775391,7.62 C15.0063672,7.39121094 15.0063672,7.02019531 14.7775391,6.79136719 Z" id="Path" fill="#A7A1EF"></path>
                                </g>
                            </g>
                        </g>
                    </g>
                </g>
            </g>
        </g>
    </g>
</svg>