<?xml version="1.0" encoding="UTF-8"?>
<svg width="20px" height="20px" viewBox="0 0 20 20" version="1.1" xmlns="http://www.w3.org/2000/svg" xmlns:xlink="http://www.w3.org/1999/xlink">
    <!-- Generator: Sketch 64 (93537) - https://sketch.com -->
    <title>icon/to-do copy 3</title>
    <desc>Created with Sketch.</desc>
    <defs>
        <path d="M10.0016965,0 C12.6727902,0 15.1840012,1.04019531 17.0727512,2.92890625 C18.9615012,4.81769531 20.0016965,7.32890625 20.0016965,10 C20.0016965,12.6710938 18.9615012,15.1823047 17.0727512,17.0710547 C15.1840012,18.9598047 12.6727902,20 10.0016965,20 C7.33056367,20 4.81935273,18.9598047 2.93060273,17.0710547 C1.04185273,15.1823047 0.00169648086,12.6710938 0.00169648086,10 C0.00169648086,7.32890625 1.04185273,4.81765625 2.93060273,2.92890625 C4.81931367,1.04019531 7.33056367,0 10.0016965,0 Z M10.0016965,1.171875 C5.13384492,1.171875 1.17357148,5.13214844 1.17357148,10 C1.17357148,14.8678516 5.13384492,18.828125 10.0016965,18.828125 C14.869548,18.828125 18.8298215,14.8678516 18.8298215,10 C18.8298215,5.13214844 14.869548,1.171875 10.0016965,1.171875 Z M13.9506418,6.79140625 C14.1794309,6.56261719 14.5504465,6.56261719 14.7792355,6.79136719 C15.0080637,7.02019531 15.0080637,7.39121094 14.7792355,7.62 L14.7792355,7.62 L9.19071992,13.2085156 C9.07634492,13.3228906 8.92634492,13.3801172 8.77642304,13.3801172 C8.62650117,13.3801172 8.47654023,13.3229297 8.36212617,13.2085156 L8.36212617,13.2085156 L5.22411836,10.0705078 C4.99529023,9.84167969 4.99529023,9.47066406 5.22411836,9.241875 C5.45294648,9.01308594 5.82396211,9.01308594 6.05275117,9.241875 L6.05275117,9.241875 L8.77646211,11.9655859 Z" id="path-1"></path>
    </defs>
    <g id="Page-1" stroke="none" stroke-width="1" fill="none" fill-rule="evenodd">
        <g id="day-in-progress" transform="translate(-551.000000, -519.000000)">
            <g id="Group-24" transform="translate(535.000000, 317.000000)">
                <g id="Group-23">
                    <g id="Group-22">
                        <g id="icon/to-do-copy-4" transform="translate(16.000000, 15.000000)">
                            <g id="icon/to-do" transform="translate(0.000000, 187.000000)">
                                <g id="color/white" transform="translate(-0.001696, 0.000000)">
                                    <mask id="mask-2" fill="white">
                                        <use xlink:href="#path-1"></use>
                                    </mask>
                                    <use id="Mask" fill="#8CAACE" fill-rule="nonzero" xlink:href="#path-1"></use>
                                    <g mask="url(#mask-2)" fill="#FFFFFF" id="Rectangle">
                                        <rect x="0" y="0" width="20" height="20"></rect>
                                    </g>
                                </g>
                            </g>
                        </g>
                    </g>
                </g>
            </g>
        </g>
    </g>
</svg>