<?xml version="1.0" encoding="UTF-8" standalone="no"?>
<!DOCTYPE svg PUBLIC "-//W3C//DTD SVG 1.1//EN" "http://www.w3.org/Graphics/SVG/1.1/DTD/svg11.dtd">
<svg version="1.1" xmlns="http://www.w3.org/2000/svg" xmlns:xlink="http://www.w3.org/1999/xlink" preserveAspectRatio="xMidYMid meet" viewBox="-1.0000000000000533 -1.0000000000000533 24 24" width="20" height="20"><defs><path d="M0 10C0 4.49 4.49 0 10 0C15.51 0 20 4.49 20 10C20 15.51 15.51 20 10 20C4.49 20 0 15.51 0 10ZM1.25 10C1.25 14.82 5.18 18.75 10 18.75C14.82 18.75 18.75 14.82 18.75 10C18.75 5.18 14.82 1.25 10 1.25C5.18 1.25 1.25 5.18 1.25 10Z" id="cq35MIqkD"></path><path d="M8.62 13.15C8.35 12.88 6.18 10.71 5.91 10.44C5.67 10.2 5.67 9.8 5.91 9.56C6.16 9.31 6.55 9.31 6.8 9.56C6.95 9.71 7.7 10.46 9.06 11.82C12.05 8.84 13.71 7.18 14.04 6.85C14.28 6.61 14.68 6.61 14.92 6.85C15.17 7.09 15.17 7.49 14.92 7.73C14.38 8.27 10.05 12.61 9.51 13.15C9.38 13.27 9.22 13.33 9.06 13.33C8.9 13.33 8.74 13.27 8.62 13.15Z" id="fnTdYkqJO"></path></defs><g><g><use xlink:href="#cq35MIqkD" opacity="1" fill="#ffffff" fill-opacity="1"></use><g><use xlink:href="#cq35MIqkD" opacity="1" fill-opacity="0" stroke="#000000" stroke-width="1" stroke-opacity="0"></use></g></g><g><use xlink:href="#fnTdYkqJO" opacity="1" fill="#ffffff" fill-opacity="1"></use><g><use xlink:href="#fnTdYkqJO" opacity="1" fill-opacity="0" stroke="#000000" stroke-width="1" stroke-opacity="0"></use></g></g></g></svg>