<?xml version="1.0" encoding="UTF-8" standalone="no"?>
<!DOCTYPE svg PUBLIC "-//W3C//DTD SVG 1.1//EN" "http://www.w3.org/Graphics/SVG/1.1/DTD/svg11.dtd">
<svg version="1.1" xmlns="http://www.w3.org/2000/svg" xmlns:xlink="http://www.w3.org/1999/xlink" preserveAspectRatio="xMidYMid meet" viewBox="-1.000000000000055 -1.000000000000055 24 24" width="20" height="20"><defs><path d="M0 10C0 4.49 4.49 0 10 0C15.51 0 20 4.49 20 10C20 15.51 15.51 20 10 20C4.49 20 0 15.51 0 10ZM1.25 10C1.25 14.82 5.18 18.75 10 18.75C14.82 18.75 18.75 14.82 18.75 10C18.75 5.18 14.82 1.25 10 1.25C5.18 1.25 1.25 5.18 1.25 10Z" id="e3ove85T"></path><path d="M5.62 10.62C5.28 10.62 5 10.35 5 10C5 9.65 5.28 9.37 5.62 9.37C6.5 9.37 13.5 9.37 14.37 9.37C14.72 9.37 15 9.65 15 10C15 10.35 14.72 10.62 14.37 10.62C12.62 10.62 6.5 10.62 5.62 10.62Z" id="hjchLINBv"></path><path d="M9.37 14.37C9.37 13.5 9.37 6.5 9.37 5.62C9.37 5.28 9.65 5 10 5C10.35 5 10.62 5.28 10.62 5.62C10.62 6.5 10.62 13.5 10.62 14.37C10.62 14.72 10.35 15 10 15C9.65 15 9.37 14.72 9.37 14.37Z" id="dP5NhsbTC"></path></defs><g><g><use xlink:href="#e3ove85T" opacity="1" fill="#000000" fill-opacity="1"></use><g><use xlink:href="#e3ove85T" opacity="1" fill-opacity="0" stroke="#000000" stroke-width="1" stroke-opacity="0"></use></g></g><g><use xlink:href="#hjchLINBv" opacity="1" fill="#000000" fill-opacity="1"></use><g><use xlink:href="#hjchLINBv" opacity="1" fill-opacity="0" stroke="#000000" stroke-width="1" stroke-opacity="0"></use></g></g><g><use xlink:href="#dP5NhsbTC" opacity="1" fill="#000000" fill-opacity="1"></use><g><use xlink:href="#dP5NhsbTC" opacity="1" fill-opacity="0" stroke="#000000" stroke-width="1" stroke-opacity="0"></use></g></g></g></svg>