<?xml version="1.0" encoding="UTF-8" standalone="no"?>
<!DOCTYPE svg PUBLIC "-//W3C//DTD SVG 1.1//EN" "http://www.w3.org/Graphics/SVG/1.1/DTD/svg11.dtd">
<svg version="1.1" xmlns="http://www.w3.org/2000/svg" xmlns:xlink="http://www.w3.org/1999/xlink" preserveAspectRatio="xMidYMid meet" viewBox="39.167500000000004 -1 21.489999999999995 24" width="17.49" height="20"><defs><path d="M55.5 3.77L53.26 3.77C53.26 1.86 53.26 0.8 53.26 0.59C53.26 0.26 53 0 52.68 0C51.93 0 45.9 0 45.15 0C44.82 0 44.56 0.26 44.56 0.59C44.56 0.8 44.56 1.86 44.56 3.77L42.32 3.77C41.38 3.77 40.86 3.77 40.75 3.77C40.43 3.77 40.17 4.03 40.17 4.35C40.17 4.68 40.43 4.94 40.75 4.94C40.82 4.94 41.15 4.94 41.74 4.94C41.74 13.62 41.74 18.45 41.74 19.41C41.74 19.74 42 20 42.32 20C43.64 20 54.18 20 55.5 20C55.83 20 56.09 19.74 56.09 19.41C56.09 18.45 56.09 13.62 56.09 4.94C56.68 4.94 57.01 4.94 57.07 4.94C57.4 4.94 57.66 4.68 57.66 4.35C57.66 4.03 57.4 3.77 57.07 3.77C56.86 3.77 56.34 3.77 55.5 3.77ZM52.09 1.17L52.09 3.77L45.73 3.77L45.73 1.17L52.09 1.17ZM42.91 18.83L42.91 4.94L45.15 4.94L52.68 4.94L54.92 4.94L54.92 18.83L42.91 18.83Z" id="a1L2nBiQfp"></path><path d="M50.21 8.12C50.21 8.87 50.21 14.9 50.21 15.65C50.21 15.97 50.47 16.23 50.8 16.23C51.12 16.23 51.38 15.97 51.38 15.65C51.38 14.9 51.38 8.87 51.38 8.12C51.38 7.79 51.12 7.53 50.8 7.53C50.47 7.53 50.21 7.79 50.21 8.12Z" id="cnPsvfBTc"></path><path d="M46.44 8.12C46.44 8.87 46.44 14.9 46.44 15.65C46.44 15.97 46.71 16.23 47.03 16.23C47.35 16.23 47.62 15.97 47.62 15.65C47.62 14.9 47.62 8.87 47.62 8.12C47.62 7.79 47.35 7.53 47.03 7.53C46.71 7.53 46.44 7.79 46.44 8.12Z" id="fOOxRUeeo"></path></defs><g><g><use xlink:href="#a1L2nBiQfp" opacity="1" fill="#000000" fill-opacity="1"></use><g><use xlink:href="#a1L2nBiQfp" opacity="1" fill-opacity="0" stroke="#000000" stroke-width="1" stroke-opacity="0"></use></g></g><g><use xlink:href="#cnPsvfBTc" opacity="1" fill="#000000" fill-opacity="1"></use><g><use xlink:href="#cnPsvfBTc" opacity="1" fill-opacity="0" stroke="#000000" stroke-width="1" stroke-opacity="0"></use></g></g><g><use xlink:href="#fOOxRUeeo" opacity="1" fill="#000000" fill-opacity="1"></use><g><use xlink:href="#fOOxRUeeo" opacity="1" fill-opacity="0" stroke="#000000" stroke-width="1" stroke-opacity="0"></use></g></g></g></svg>